<svg xmlns="http://www.w3.org/2000/svg" viewBox="0 0 114.5 40" fill="#000000"><path d="M29.4 0L12.6 29.1 0 7.3h8.4l4.2 7.3L21 0 29.4 0zM33.6 0L14.7 32.7l4.2 7.3L42 0H33.6zM57 14.5l-6.2 14.6 -6.2-14.6H42l7.7 17.8H52l7.7-17.8H57zM71.7 26c0 3.7-3.2 6.7-6.9 6.7 -3.7 0-6.9-3-6.9-6.7s3.2-6.7 6.9-6.7C68.5 19.4 71.7 22.3 71.7 26zM69.2 26c0-2.4-2-4.4-4.4-4.4 -2.4 0-4.4 2-4.4 4.4s2 4.4 4.4 4.4C67.1 30.4 69.2 28.5 69.2 26zM95.1 30.4c-2.4 0-4.4-2-4.4-4.4s2-4.4 4.4-4.4c1.4 0 2.7 0.7 3.5 1.7l1.9-1.5c-1.3-1.6-3.2-2.6-5.4-2.6 -3.8 0-6.9 3-6.9 6.7s3.1 6.7 6.9 6.7c2.2 0 4.2-1 5.5-2.6l-1.9-1.5C97.9 29.7 96.6 30.4 95.1 30.4zM114.5 23.9c0-2.7-2.3-4.8-5-4.8 -1.5 0-3.1 0.6-4 1.7v-6.3h-2.5v17.8h2.5v-7.8c0-1.8 1.9-3 3.3-3 1.9 0 3.1 1.3 3.1 3v7.8h2.5L114.5 23.9 114.5 23.9zM83 27.4c0 1.8-1.9 3-3.3 3 -1.9 0-3.1-1.3-3.1-3v-7.8h-2.5v8.4l0 0c0 2.7 2.3 4.8 5 4.8 1.5 0 3.1-0.6 4-1.7v1.2h2.5V19.6H83V27.4z"/></svg>